<?xml version="1.0" standalone="no"?>
<!DOCTYPE svg PUBLIC "-//W3C//DTD SVG 20010904//EN"
 "http://www.w3.org/TR/2001/REC-SVG-20010904/DTD/svg10.dtd">
<svg version="1.0" xmlns="http://www.w3.org/2000/svg"
 width="1000.000000pt" height="1000.000000pt" viewBox="0 0 1000.000000 1000.000000"
 preserveAspectRatio="xMidYMid meet">
<metadata>
Created by potrace 1.14, written by Peter Selinger 2001-2017
</metadata>
<g transform="translate(0.000000,1000.000000) scale(0.100000,-0.100000)"
fill="#000000" stroke="none">
<path d="M0 5000 l0 -5000 5000 0 5000 0 0 5000 0 5000 -5000 0 -5000 0 0
-5000z m6764 2538 c16 -15 51 -89 101 -214 86 -218 127 -293 205 -377 84 -92
176 -146 394 -232 107 -42 201 -84 210 -94 24 -26 21 -83 -6 -108 -13 -12 -93
-49 -178 -83 -206 -82 -267 -112 -342 -169 -72 -55 -101 -86 -157 -168 -43
-64 -61 -103 -150 -333 -62 -158 -77 -180 -125 -180 -41 0 -67 41 -140 226
-40 99 -85 205 -100 235 -40 75 -118 170 -186 223 -51 40 -206 126 -227 126
-13 0 -295 118 -304 127 -5 5 -11 22 -15 38 -10 55 19 76 213 155 264 107 348
158 439 268 69 84 107 159 188 367 67 171 95 215 136 215 10 0 30 -10 44 -22z
m-2556 -599 c515 -56 913 -281 1164 -659 55 -83 135 -243 144 -287 l5 -28
-347 -111 -347 -111 -42 83 c-113 226 -315 389 -560 453 -216 57 -482 47 -670
-24 -253 -95 -388 -295 -387 -575 0 -212 76 -342 262 -450 112 -65 235 -106
540 -180 600 -146 752 -202 1005 -374 110 -74 281 -243 353 -349 69 -101 145
-260 174 -367 20 -75 23 -108 23 -275 -1 -172 -3 -200 -27 -296 -135 -536
-562 -864 -1238 -950 -142 -18 -490 -16 -635 5 -274 39 -532 125 -728 242
-168 101 -354 267 -458 409 -78 107 -175 312 -157 330 7 7 679 215 694 215 6
0 28 -34 48 -75 99 -200 303 -374 529 -451 261 -89 647 -65 885 55 219 111
332 279 332 496 0 155 -45 263 -154 370 -154 150 -316 220 -820 350 -375 97
-464 124 -601 182 -333 142 -583 374 -696 645 -61 148 -74 224 -74 448 0 222
12 307 62 457 94 284 299 515 582 657 153 78 396 143 611 165 124 12 415 13
528 0z"/>
</g>
</svg>
